<svg width="602" height="602" viewBox="0 0 602 602" fill="none" xmlns="http://www.w3.org/2000/svg">
<path d="M0 0H602V602H0V0Z" fill="#123456"/>
<path d="M442.334 317.835C410.95 303.416 351.027 294.576 344.919 365.826C338.812 437.077 478.667 466.911 535.476 390.93" stroke="white" stroke-width="16"/>
<path d="M66 403.006C98.2041 429.172 154.579 438.961 207.508 373.818C273.669 292.389 286.392 276.658 337.285 272.032C393.268 266.942 441.616 317.836 441.616 317.836" stroke="white" stroke-width="16"/>
<path d="M414.855 246.274H428.767V246.274C433.495 246.274 437.328 242.441 437.328 237.713V224.802C437.328 212.943 427.714 203.33 415.856 203.33H412.892C410.479 203.33 408.263 201.996 407.134 199.864L399.766 185.956C394.565 176.139 384.365 170 373.256 170H318.588C307.81 170 297.86 175.782 292.524 185.146L284.098 199.93C282.9 202.032 280.667 203.33 278.248 203.33H274.472C262.613 203.33 253 212.943 253 224.802V237.98C253 242.56 256.713 246.274 261.293 246.274V246.274H272.797" stroke="white" stroke-width="16"/>
<path d="M415.081 246.272H411.798C407.601 246.272 404.119 249.583 402.516 253.462C400.321 258.773 395.554 265.082 385.298 265.082C374.99 265.082 370.228 258.622 368.047 253.222C366.475 249.327 362.991 246.014 358.791 246.014H326.58C322.339 246.014 318.838 249.396 317.245 253.326C315.102 258.611 310.42 264.825 300.242 264.825C289.959 264.825 285.104 258.569 282.84 253.323C281.196 249.512 277.737 246.272 273.587 246.272H272.068" stroke="white" stroke-width="16"/>
</svg>
