<svg width="603" height="603" viewBox="0 0 603 603" fill="none" xmlns="http://www.w3.org/2000/svg">
<path d="M443.069 318.363C411.633 303.92 351.61 295.065 345.492 366.434C339.375 437.802 479.462 467.687 536.365 391.579" stroke="white" stroke-width="16"/>
<path d="M66.1096 403.676C98.3672 429.885 154.836 439.691 207.853 374.439C274.124 292.875 286.868 277.117 337.846 272.483C393.921 267.386 442.35 318.363 442.35 318.363" stroke="white" stroke-width="16"/>
<path d="M415.544 246.683H429.479V246.683C434.215 246.683 438.054 242.843 438.054 238.107V225.175C438.054 213.297 428.425 203.667 416.547 203.667H413.578C411.161 203.667 408.941 202.332 407.81 200.196L400.416 186.238C395.215 176.422 385.015 170.282 373.906 170.282H319.088C308.31 170.282 298.361 176.064 293.024 185.428L284.57 200.263C283.37 202.368 281.133 203.667 278.711 203.667H274.928C263.05 203.667 253.42 213.297 253.42 225.175V238.375C253.42 242.963 257.14 246.683 261.727 246.683V246.683H273.25" stroke="white" stroke-width="16"/>
<path d="M415.771 246.681H412.47C408.273 246.681 404.791 249.992 403.189 253.872C400.993 259.194 396.219 265.523 385.938 265.523C375.606 265.523 370.836 259.042 368.654 253.631C367.083 249.735 363.599 246.423 359.399 246.423H327.11C322.869 246.423 319.368 249.804 317.776 253.735C315.633 259.032 310.943 265.265 300.74 265.265C290.433 265.265 285.57 258.989 283.305 253.732C281.663 249.921 278.204 246.681 274.054 246.681H272.52" stroke="white" stroke-width="16"/>
</svg>
