<svg width="602" height="603" viewBox="0 0 602 603" fill="none" xmlns="http://www.w3.org/2000/svg">
<path d="M0 0H602V603H0V0Z" fill="#4AA5FF"/>
<path d="M442.334 318.363C410.95 303.92 351.027 295.065 344.919 366.434C338.812 437.802 478.667 467.687 535.476 391.579" stroke="white" stroke-width="16"/>
<path d="M66 403.676C98.2041 429.885 154.579 439.691 207.508 374.439C273.669 292.875 286.392 277.117 337.285 272.483C393.268 267.386 441.616 318.363 441.616 318.363" stroke="white" stroke-width="16"/>
<path d="M414.855 246.683H428.767V246.683C433.495 246.683 437.328 242.85 437.328 238.122V225.175C437.328 213.297 427.698 203.667 415.82 203.667H412.894C410.48 203.667 408.263 202.332 407.135 200.198L399.761 186.257C394.564 176.43 384.359 170.282 373.242 170.282H318.602C307.817 170.282 297.861 176.072 292.527 185.447L284.097 200.264C282.9 202.368 280.666 203.667 278.245 203.667H274.508C262.629 203.667 253 213.297 253 225.175V238.389C253 242.969 256.713 246.683 261.293 246.683V246.683H272.797" stroke="white" stroke-width="16"/>
<path d="M415.081 246.681H411.799C407.601 246.681 404.12 249.992 402.52 253.873C400.327 259.195 395.561 265.523 385.298 265.523C374.984 265.523 370.222 259.043 368.043 253.632C366.474 249.735 362.991 246.423 358.79 246.423H326.581C322.34 246.423 318.838 249.804 317.249 253.737C315.108 259.033 310.426 265.265 300.242 265.265C289.952 265.265 285.098 258.991 282.836 253.734C281.196 249.921 277.737 246.681 273.586 246.681H272.068" stroke="white" stroke-width="16"/>
</svg>
