<svg viewBox="0 0 313 344" fill="none" xmlns="http://www.w3.org/2000/svg">
<path d="M180 182.25V154.75L156.5 168.5V196L180 182.25Z" fill="#BEBDCB"/>
<path d="M133 182.25L156.5 196V168.5L133 154.75V182.25Z" fill="#E3E3E5"/>
<path d="M180 154.75L156.5 141L133 154.75L156.5 168.5L180 154.75Z" fill="white"/>
<path d="M180 41.25V13.75L156.5 27.5V55L180 41.25Z" fill="#BEBDCB"/>
<path d="M133 41.25L156.5 55V27.5L133 13.75V41.25Z" fill="#E3E3E5"/>
<path d="M180 13.75L156.5 0L133 13.75L156.5 27.5L180 13.75Z" fill="white"/>
<path d="M313 112.25V84.75L289.5 98.5V126L313 112.25Z" fill="#BEBDCB"/>
<path d="M266 112.25L289.5 126V98.5L266 84.75V112.25Z" fill="#E3E3E5"/>
<path d="M313 84.75L289.5 71L266 84.75L289.5 98.5L313 84.75Z" fill="white"/>
<path d="M313 263.25V235.75L289.5 249.5V277L313 263.25Z" fill="#BEBDCB"/>
<path d="M266 263.25L289.5 277V249.5L266 235.75V263.25Z" fill="#E3E3E5"/>
<path d="M313 235.75L289.5 222L266 235.75L289.5 249.5L313 235.75Z" fill="white"/>
<path d="M180 330.25V302.75L156.5 316.5V344L180 330.25Z" fill="#BEBDCB"/>
<path d="M133 330.25L156.5 344V316.5L133 302.75V330.25Z" fill="#E3E3E5"/>
<path d="M180 302.75L156.5 289L133 302.75L156.5 316.5L180 302.75Z" fill="white"/>
<path d="M47 263.25V235.75L23.5 249.5V277L47 263.25Z" fill="#BEBDCB"/>
<path d="M0 263.25L23.5 277V249.5L0 235.75V263.25Z" fill="#E3E3E5"/>
<path d="M47 235.75L23.5 222L0 235.75L23.5 249.5L47 235.75Z" fill="white"/>
<path d="M47 112.25V84.75L23.5 98.5V126L47 112.25Z" fill="#BEBDCB"/>
<path d="M0 112.25L23.5 126V98.5L0 84.75V112.25Z" fill="#E3E3E5"/>
<path d="M47 84.75L23.5 71L0 84.75L23.5 98.5L47 84.75Z" fill="white"/>
<path d="M53.7034 116.21L122.728 155.167" stroke="white" stroke-width="9" stroke-linecap="round"/>
<path d="M189.212 44.0811L258.236 83.0378" stroke="white" stroke-width="9" stroke-linecap="round"/>
<path d="M53.2119 267.081L122.236 306.038" stroke="white" stroke-width="9" stroke-linecap="round"/>
<path d="M190.788 156.038L259.813 117.081" stroke="white" stroke-width="9" stroke-linecap="round"/>
<path d="M190.788 306.038L259.813 267.081" stroke="white" stroke-width="9" stroke-linecap="round"/>
<path d="M54.7881 83.0378L123.813 44.0811" stroke="white" stroke-width="9" stroke-linecap="round"/>
<path d="M157.5 282.259V203" stroke="white" stroke-width="9" stroke-linecap="round"/>
<path d="M290.5 213.259V134" stroke="white" stroke-width="9" stroke-linecap="round"/>
<path d="M24.5 213.259L24.5 134" stroke="white" stroke-width="9" stroke-linecap="round"/>
</svg>
