<svg width="276" height="275" viewBox="0 0 276 275" fill="none" xmlns="http://www.w3.org/2000/svg">
<g filter="url(#filter0_f_201_66)">
<ellipse cx="138" cy="137.5" rx="126" ry="125.5" fill="#D9D9D9" fill-opacity="0.5"/>
<path d="M138 267C209.782 267 268 209.036 268 137.5C268 65.9641 209.782 8 138 8C66.218 8 8 65.9641 8 137.5C8 209.036 66.218 267 138 267Z" stroke="#202B47" stroke-width="8"/>
</g>
<path d="M264 137C264 206.588 207.588 263 138 263C68.4121 263 12 206.588 12 137C12 67.4121 68.4121 11 138 11C207.588 11 264 67.4121 264 137Z" fill="#5689DB"/>
<path d="M143.488 138.46C140.93 137.379 136.045 136.717 135.548 142.058C135.05 147.399 143.339 148.353 148.614 147.017" stroke="white" stroke-width="2"/>
<path d="M109 147.59C112.457 147.908 120.034 147.54 124.348 142.657C129.74 136.553 130.777 135.374 134.925 135.027C139.488 134.645 143.429 138.46 143.429 138.46" stroke="white" stroke-width="2"/>
<path d="M175.635 138.46C173.077 137.379 167.837 136.553 167.339 141.894C166.841 147.235 177.028 148.734 182.628 147.017" stroke="white" stroke-width="2"/>
<path d="M141.77 147.399C145.227 147.717 152.181 147.54 156.495 142.657C161.888 136.553 162.925 135.374 167.073 135.027C171.636 134.645 175.577 138.46 175.577 138.46" stroke="white" stroke-width="2"/>
<path d="M209.442 138.46C206.884 137.379 202 136.717 201.502 142.058C201.004 147.399 209.293 148.353 214.568 147.017" stroke="white" stroke-width="2"/>
<path d="M174.125 147.399C177.443 148.353 185.988 147.54 190.302 142.657C195.695 136.553 196.732 135.374 200.88 135.027C205.443 134.645 209.383 138.46 209.383 138.46" stroke="white" stroke-width="2"/>
<path d="M241.589 138.46C239.031 137.379 233.791 136.553 233.293 141.894C232.795 147.235 243.318 148.57 248.641 148.57" stroke="white" stroke-width="2"/>
<path d="M207.724 147.399C211.181 147.717 218.136 147.54 222.45 142.657C227.842 136.553 228.879 135.374 233.027 135.027C237.59 134.645 241.531 138.46 241.531 138.46" stroke="white" stroke-width="2"/>
<path d="M77.4875 71.4604C74.9296 70.3794 70.0454 69.7168 69.5477 75.0578C69.0499 80.3989 77.3387 81.3527 82.6141 80.0174" stroke="white" stroke-width="2"/>
<path d="M43 80.5897C46.4567 80.9076 54.0339 80.5402 58.3479 75.657C63.7404 69.5529 64.7774 68.3736 68.9254 68.0268C73.4883 67.6453 77.429 71.4604 77.429 71.4604" stroke="white" stroke-width="2"/>
<path d="M109.635 71.4604C107.077 70.3794 101.837 69.5528 101.339 74.8939C100.841 80.235 111.028 81.7342 116.628 80.0174" stroke="white" stroke-width="2"/>
<path d="M75.7698 80.3989C79.2265 80.7169 86.1814 80.5402 90.4954 75.657C95.8879 69.5529 96.9249 68.3736 101.073 68.0268C105.636 67.6453 109.577 71.4604 109.577 71.4604" stroke="white" stroke-width="2"/>
<path d="M143.442 71.4604C140.884 70.3794 136 69.7168 135.502 75.0578C135.004 80.3989 143.293 81.3527 148.568 80.0174" stroke="white" stroke-width="2"/>
<path d="M108.125 80.3989C111.443 81.3527 119.988 80.5402 124.302 75.657C129.695 69.5529 130.732 68.3736 134.88 68.0268C139.443 67.6453 143.383 71.4604 143.383 71.4604" stroke="white" stroke-width="2"/>
<path d="M175.589 71.4604C173.031 70.3794 167.791 69.5528 167.293 74.8939C166.795 80.235 177.318 81.5703 182.641 81.5703" stroke="white" stroke-width="2"/>
<path d="M141.724 80.3989C145.181 80.7169 152.136 80.5402 156.45 75.657C161.842 69.5529 162.879 68.3736 167.027 68.0268C171.59 67.6453 175.531 71.4604 175.531 71.4604" stroke="white" stroke-width="2"/>
<path d="M77.4875 198.46C74.9296 197.379 70.0454 196.717 69.5477 202.058C69.0499 207.399 77.3387 208.353 82.6141 207.017" stroke="white" stroke-width="2"/>
<path d="M43 207.59C46.4567 207.908 54.0339 207.54 58.3479 202.657C63.7404 196.553 64.7774 195.374 68.9254 195.027C73.4883 194.645 77.429 198.46 77.429 198.46" stroke="white" stroke-width="2"/>
<path d="M109.635 198.46C107.077 197.379 101.837 196.553 101.339 201.894C100.841 207.235 111.028 208.734 116.628 207.017" stroke="white" stroke-width="2"/>
<path d="M75.7698 207.399C79.2265 207.717 86.1814 207.54 90.4954 202.657C95.8879 196.553 96.9249 195.374 101.073 195.027C105.636 194.645 109.577 198.46 109.577 198.46" stroke="white" stroke-width="2"/>
<path d="M143.442 198.46C140.884 197.379 136 196.717 135.502 202.058C135.004 207.399 143.293 208.353 148.568 207.017" stroke="white" stroke-width="2"/>
<path d="M108.125 207.399C111.443 208.353 119.988 207.54 124.302 202.657C129.695 196.553 130.732 195.374 134.88 195.027C139.443 194.645 143.383 198.46 143.383 198.46" stroke="white" stroke-width="2"/>
<path d="M175.589 198.46C173.031 197.379 167.791 196.553 167.293 201.894C166.795 207.235 177.318 208.57 182.641 208.57" stroke="white" stroke-width="2"/>
<path d="M141.724 207.399C145.181 207.717 152.136 207.54 156.45 202.657C161.842 196.553 162.879 195.374 167.027 195.027C171.59 194.645 175.531 198.46 175.531 198.46" stroke="white" stroke-width="2"/>
<path d="M131.5 61.5L128.922 62.317M120.268 65.0915L128.922 62.317M120.268 65.0915V65.0915C119.82 68.5675 117.591 71.5581 114.389 72.9818L111.358 74.3288M120.268 65.0915V65.0915C117.087 67.406 113.025 68.1444 109.233 67.0974L109.021 67.0389M128.922 62.317V62.317C131.301 64.272 134.268 65.3714 137.347 65.439L138.974 65.4748M128.922 62.317L128.601 62.1058C125.949 60.3574 122.742 59.655 119.602 60.1343V60.1343" stroke="black" stroke-width="1.5"/>
<path d="M134.23 55.3875C136.447 54.6766 138.821 55.8978 139.532 58.115C140.243 60.3323 139.021 62.7061 136.804 63.417C134.587 64.1279 132.213 62.9067 131.502 60.6894C130.791 58.4722 132.013 56.0984 134.23 55.3875Z" stroke="black" stroke-width="1.5"/>
<path d="M116.57 194.939V198.546M116.57 207V198.546M116.57 198.546L126 193M116.57 198.546L107 193" stroke="black" stroke-width="1.5"/>
<path d="M120.65 190C120.65 192.347 118.747 194.25 116.4 194.25C114.053 194.25 112.15 192.347 112.15 190C112.15 187.653 114.053 185.75 116.4 185.75C118.747 185.75 120.65 187.653 120.65 190Z" stroke="black" stroke-width="1.5"/>
<path d="M212.016 130.673H214.145V130.673C214.869 130.673 215.456 130.087 215.456 129.363V127.387C215.456 125.572 213.984 124.101 212.169 124.101H211.716C211.347 124.101 211.007 123.897 210.835 123.57L210.547 123.027C209.234 120.549 206.66 119 203.856 119H199.25C196.385 119 193.739 120.537 192.32 123.027L192.005 123.581C191.822 123.902 191.48 124.101 191.11 124.101H190.532C188.717 124.101 187.246 125.572 187.246 127.387V129.404C187.246 130.105 187.814 130.673 188.515 130.673V130.673H190.275" stroke="black" stroke-width="2"/>
<path d="M212.051 130.673V130.673C211.125 130.673 210.376 131.427 209.904 132.223C209.5 132.904 208.778 133.552 207.493 133.552C207.129 133.552 206.81 133.499 206.53 133.408C204.608 132.78 203.01 130.633 200.988 130.633V130.633C198.946 130.633 197.307 132.841 195.342 133.399C195.087 133.471 194.8 133.512 194.476 133.512C193.038 133.512 192.293 132.713 191.911 131.963C191.564 131.28 190.93 130.673 190.164 130.673V130.673" stroke="black" stroke-width="2"/>
<defs>
<filter id="filter0_f_201_66" x="0" y="0" width="276" height="275" filterUnits="userSpaceOnUse" color-interpolation-filters="sRGB">
<feFlood flood-opacity="0" result="BackgroundImageFix"/>
<feBlend mode="normal" in="SourceGraphic" in2="BackgroundImageFix" result="shape"/>
<feGaussianBlur stdDeviation="2" result="effect1_foregroundBlur_201_66"/>
</filter>
</defs>
</svg>
